<svg id="Layer_1" data-name="Layer 1" xmlns="http://www.w3.org/2000/svg" xmlns:xlink="http://www.w3.org/1999/xlink" viewBox="0 0 1920 1311.5731"><defs><style>.cls-1{fill:none;}.cls-2{clip-path:url(#clip-path);}.cls-3{fill:#01978e;}.cls-4{fill:#077;}.cls-5{fill:#70b2b2;}.cls-6{fill:#006d62;}.cls-7{fill:#fff;}.cls-8{fill:#f18553;}.cls-9{opacity:0.5;}</style><clipPath id="clip-path" transform="translate(0 231.5731)"><rect class="cls-1" width="1920" height="1080"/></clipPath></defs><g class="cls-2"><rect class="cls-3" y="231.5731" width="1920" height="1080"/><path class="cls-4" d="M1326.8514,719.687c0,127.5436,103.7657,231.3093,231.3093,231.3093v128.8968c-198.6178,0-360.2063-161.5883-360.2063-360.2061Z" transform="translate(0 231.5731)"/><path class="cls-4" d="M1558.1605,488.4845c-127.5436,0-231.3093,103.7657-231.3093,231.3093H1197.9544c0-198.6178,161.5883-360.2063,360.2061-360.2063Z" transform="translate(0 231.5731)"/><path class="cls-5" d="M1327.4925,128.622c0,127.5436,103.7657,231.3093,231.3093,231.3093V488.8281c-198.6178,0-360.2063-161.5883-360.2063-360.2061Z" transform="translate(0 231.5731)"/><path class="cls-5" d="M966.3455,951.103c127.5436,0,231.3093-103.7657,231.3093-231.3093h128.8968c0,198.6178-161.5883,360.2063-360.2061,360.2063Z" transform="translate(0 231.5731)"/><path class="cls-6" d="M1558.7367,951.103c127.5436,0,231.3093-103.7657,231.3093-231.3093h128.8968c0,198.6178-161.5883,360.2063-360.2061,360.2063Z" transform="translate(0 231.5731)"/><path class="cls-7" d="M1197.6546,1079.4762c0-127.5437-103.7656-231.3093-231.3093-231.3093V719.27c198.6178,0,360.2063,161.5883,360.2063,360.2061Z" transform="translate(0 231.5731)"/><path class="cls-7" d="M1790.0458,720.1031c0-127.5437-103.7657-231.3094-231.3093-231.3094V359.8969c198.6178,0,360.2063,161.5883,360.2063,360.2062Z" transform="translate(0 231.5731)"/><path class="cls-6" d="M1197.6546,720.1031c0-127.5437-103.7656-231.3094-231.3093-231.3094V359.8969c198.6178,0,360.2063,161.5883,360.2063,360.2062Z" transform="translate(0 231.5731)"/><path class="cls-8" d="M966.2369,848.167c-127.5436,0-231.3093,103.7656-231.3093,231.3093H606.0308c0-198.6178,161.5883-360.2063,360.2061-360.2063Z" transform="translate(0 231.5731)"/><path class="cls-4" d="M1558.7367,231.3093C1686.28,231.3093,1790.046,127.5436,1790.046,0h128.8968c0,198.6178-161.5883,360.2063-360.2061,360.2063Z" transform="translate(0 231.5731)"/><circle class="cls-8" cx="1558.9354" cy="397.7166" r="64.8471"/><circle class="cls-6" cx="375.4847" cy="913.856" r="64.8471" transform="translate(-536.2169 764.7431) rotate(-45)"/><path class="cls-6" d="M1197.6546,128.633c0-127.5436-103.7656-231.3093-231.3093-231.3093V-231.5731c198.6178,0,360.2063,161.5883,360.2063,360.2061Z" transform="translate(0 231.5731)"/><path class="cls-7" d="M606.0349,1080c0-127.5436-103.7657-231.3093-231.3093-231.3093V719.7939c198.6178,0,360.2063,161.5883,360.2063,360.2061Z" transform="translate(0 231.5731)"/><g class="cls-9"><path class="cls-7" d="M966.3453,360.0309c127.5437,0,231.3093-103.7657,231.3093-231.3093h128.8968c0,198.6178-161.5883,360.2063-360.2061,360.2063Z" transform="translate(0 231.5731)"/></g></g></svg>