<?xml version="1.0" encoding="utf-8"?>
<!-- Generator: Adobe Illustrator 25.2.3, SVG Export Plug-In . SVG Version: 6.00 Build 0)  -->
<svg version="1.1" id="Layer_1" xmlns="http://www.w3.org/2000/svg" xmlns:xlink="http://www.w3.org/1999/xlink" x="0px" y="0px"
	 viewBox="0 0 1920 1080" style="enable-background:new 0 0 1920 1080;" xml:space="preserve">
<style type="text/css">
	.st0{fill:#01978E;}
	.st1{fill:#007777;}
	.st2{fill:#70B2B2;}
	.st3{fill:#006D62;}
	.st4{fill:#FFFFFF;}
	.st5{fill:#F18553;}
	.st6{opacity:0.5;}
	.st7{fill:none;}
</style>
<rect class="st0" width="1920" height="1080"/>
<g>
	<path class="st1" d="M1326.9,719.7c0,127.5,103.8,231.3,231.3,231.3v128.9c-198.6,0-360.2-161.6-360.2-360.2H1326.9z"/>
</g>
<g>
	<path class="st1" d="M1558.2,488.5c-127.5,0-231.3,103.8-231.3,231.3H1198c0-198.6,161.6-360.2,360.2-360.2V488.5z"/>
</g>
<g>
	<path class="st2" d="M1327.5,128.6c0,127.5,103.8,231.3,231.3,231.3v128.9c-198.6,0-360.2-161.6-360.2-360.2H1327.5z"/>
</g>
<g>
	<path class="st2" d="M966.3,951.1c127.5,0,231.3-103.8,231.3-231.3h128.9c0,198.6-161.6,360.2-360.2,360.2V951.1z"/>
</g>
<g>
	<path class="st3" d="M1558.7,951.1c127.5,0,231.3-103.8,231.3-231.3h128.9c0,198.6-161.6,360.2-360.2,360.2V951.1z"/>
</g>
<g>
	<path class="st4" d="M1197.7,1079.5c0-127.5-103.8-231.3-231.3-231.3V719.3c198.6,0,360.2,161.6,360.2,360.2H1197.7z"/>
</g>
<g>
	<path class="st4" d="M1790,720.1c0-127.5-103.8-231.3-231.3-231.3V359.9c198.6,0,360.2,161.6,360.2,360.2H1790z"/>
</g>
<g>
	<path class="st3" d="M1197.7,720.1c0-127.5-103.8-231.3-231.3-231.3V359.9c198.6,0,360.2,161.6,360.2,360.2H1197.7z"/>
</g>
<g>
	<path class="st5" d="M966.2,848.2c-127.5,0-231.3,103.8-231.3,231.3H606c0-198.6,161.6-360.2,360.2-360.2V848.2z"/>
</g>
<g>
	<path class="st1" d="M1558.7,231.3C1686.3,231.3,1790,127.5,1790,0h128.9c0,198.6-161.6,360.2-360.2,360.2V231.3z"/>
</g>
<circle class="st5" cx="1558.9" cy="166.1" r="64.8"/>
<ellipse transform="matrix(0.7071 -0.7071 0.7071 0.7071 -536.2169 533.17)" class="st3" cx="375.5" cy="913.9" rx="64.8" ry="64.8"/>
<g>
	<path class="st4" d="M606,1080c0-127.5-103.8-231.3-231.3-231.3V719.8c198.6,0,360.2,161.6,360.2,360.2H606z"/>
</g>
<g class="st6">
	<path class="st4" d="M966.3,360c127.5,0,231.3-103.8,231.3-231.3h128.9c0,198.6-161.6,360.2-360.2,360.2V360z"/>
</g>
<g>
	<path class="st7" d="M1302.8,0c15.3,40,23.7,83.3,23.7,128.6h-128.9c0-47.6-14.4-91.8-39.2-128.6H0v1080h1920V0H1302.8z"/>
	<path class="st3" d="M1326.6,128.6c0-45.3-8.4-88.7-23.7-128.6h-144.3c24.7,36.8,39.2,81.1,39.2,128.6H1326.6z"/>
</g>
</svg>
