<?xml version="1.0" encoding="utf-8"?>
<!-- Generator: Adobe Illustrator 25.2.3, SVG Export Plug-In . SVG Version: 6.00 Build 0)  -->
<svg version="1.1" xmlns="http://www.w3.org/2000/svg" xmlns:xlink="http://www.w3.org/1999/xlink" x="0px" y="0px"
	 viewBox="0 0 476 476" style="enable-background:new 0 0 476 476;" xml:space="preserve">
<style type="text/css">
	.st0{fill:#282923;}
	.st1{fill:#545751;}
	.st2{fill:#595648;stroke:#595648;stroke-width:9;stroke-linecap:round;stroke-miterlimit:10;}
	.st3{fill:#595648;stroke:#BF1455;stroke-width:9;stroke-linecap:round;stroke-miterlimit:10;}
	.st4{fill:#595648;stroke:#4CA5B8;stroke-width:9;stroke-linecap:round;stroke-miterlimit:10;}
	.st5{fill:#595648;stroke:#8962C9;stroke-width:9;stroke-linecap:round;stroke-miterlimit:10;}
	.st6{fill:#595648;stroke:#C4BA5D;stroke-width:9;stroke-linecap:round;stroke-miterlimit:10;}
	.st7{fill:#595648;stroke:#679918;stroke-width:9;stroke-linecap:round;stroke-miterlimit:10;}
</style>
<g id="Layer_1">
</g>
<g id="Layer_2">
	<rect x="-0.1" y="-0.4" class="st0" width="476.8" height="476.8"/>
	<rect x="14" y="16.3" class="st1" width="10.2" height="14.6"/>
	<rect x="14" y="36.6" class="st1" width="10.2" height="14.6"/>
	<rect x="14" y="56.8" class="st1" width="10.2" height="14.6"/>
	<rect x="14" y="77.1" class="st1" width="10.2" height="14.6"/>
	<rect x="14" y="97.4" class="st1" width="10.2" height="14.6"/>
	<rect x="14" y="117.7" class="st1" width="10.2" height="14.6"/>
	<rect x="14" y="138" class="st1" width="10.2" height="14.6"/>
	<rect x="14" y="158.6" class="st1" width="10.2" height="14.6"/>
	<line class="st2" x1="42" y1="23.5" x2="128.1" y2="23.5"/>
	<line class="st2" x1="144.2" y1="23.5" x2="197.3" y2="23.5"/>
	<line class="st2" x1="42" y1="145.3" x2="128.1" y2="145.3"/>
	<line class="st2" x1="144.2" y1="145.3" x2="425.5" y2="145.3"/>
	<line class="st2" x1="42" y1="43.8" x2="74.5" y2="43.8"/>
	<line class="st2" x1="91.4" y1="43.8" x2="160.6" y2="43.8"/>
	<line class="st2" x1="176.7" y1="43.8" x2="219.7" y2="43.8"/>
	<line class="st3" x1="42" y1="87.5" x2="103.7" y2="87.5"/>
	<line class="st2" x1="119.6" y1="87.5" x2="160.6" y2="87.5"/>
	<line class="st2" x1="176.7" y1="87.5" x2="244.9" y2="87.5"/>
	<line class="st3" x1="42" y1="104.7" x2="76.6" y2="104.7"/>
	<line class="st2" x1="91.4" y1="104.7" x2="126" y2="104.7"/>
	<line class="st2" x1="140.1" y1="104.7" x2="193.7" y2="104.7"/>
	<line class="st3" x1="42" y1="125" x2="121.8" y2="125"/>
	<line class="st4" x1="140.1" y1="125" x2="301.3" y2="125"/>
	<rect x="14" y="179.4" class="st1" width="10.2" height="14.6"/>
	<rect x="14" y="199.7" class="st1" width="10.2" height="14.6"/>
	<rect x="14" y="220" class="st1" width="10.2" height="14.6"/>
	<rect x="14" y="240.3" class="st1" width="10.2" height="14.6"/>
	<rect x="14" y="260.6" class="st1" width="10.2" height="14.6"/>
	<rect x="14" y="280.8" class="st1" width="10.2" height="14.6"/>
	<rect x="14" y="301.1" class="st1" width="10.2" height="14.6"/>
	<line class="st3" x1="42" y1="186.7" x2="128.1" y2="186.7"/>
	<line class="st5" x1="144.2" y1="186.7" x2="197.3" y2="186.7"/>
	<line class="st4" x1="212.6" y1="186.7" x2="298.9" y2="186.7"/>
	<line class="st6" x1="314.2" y1="186.7" x2="401.8" y2="186.7"/>
	<line class="st2" x1="42" y1="308.4" x2="128.1" y2="308.4"/>
	<line class="st2" x1="144.2" y1="308.4" x2="301.3" y2="308.4"/>
	<line class="st3" x1="42" y1="207" x2="74.5" y2="207"/>
	<line class="st7" x1="91.4" y1="207" x2="160.6" y2="207"/>
	<line class="st6" x1="176.7" y1="207" x2="219.7" y2="207"/>
	<line class="st3" x1="42" y1="250.6" x2="103.7" y2="250.6"/>
	<line class="st6" x1="119.6" y1="250.6" x2="160.6" y2="250.6"/>
	<line class="st2" x1="176.7" y1="250.6" x2="244.9" y2="250.6"/>
	<line class="st3" x1="42" y1="267.8" x2="76.6" y2="267.8"/>
	<line class="st4" x1="91.4" y1="267.8" x2="126" y2="267.8"/>
	<line class="st2" x1="140.1" y1="267.8" x2="193.7" y2="267.8"/>
	<line class="st3" x1="42" y1="288.1" x2="121.8" y2="288.1"/>
	<line class="st4" x1="140.1" y1="288.1" x2="384.6" y2="288.1"/>
	<rect x="14" y="323" class="st1" width="10.2" height="14.6"/>
	<rect x="14" y="343.3" class="st1" width="10.2" height="14.6"/>
	<rect x="14" y="363.6" class="st1" width="10.2" height="14.6"/>
	<rect x="14" y="383.9" class="st1" width="10.2" height="14.6"/>
	<rect x="14" y="404.2" class="st1" width="10.2" height="14.6"/>
	<rect x="14" y="424.5" class="st1" width="10.2" height="14.6"/>
	<rect x="14" y="444.8" class="st1" width="10.2" height="14.6"/>
	<line class="st3" x1="42" y1="330.3" x2="128.1" y2="330.3"/>
	<line class="st6" x1="144.2" y1="330.3" x2="358" y2="330.3"/>
	<line class="st2" x1="42" y1="452" x2="231" y2="452"/>
	<line class="st2" x1="251.9" y1="452" x2="326.1" y2="452"/>
	<line class="st2" x1="42" y1="350.6" x2="74.5" y2="350.6"/>
	<line class="st2" x1="91.4" y1="350.6" x2="160.6" y2="350.6"/>
	<line class="st2" x1="176.7" y1="350.6" x2="219.7" y2="350.6"/>
	<line class="st3" x1="42" y1="394.2" x2="103.7" y2="394.2"/>
	<line class="st2" x1="119.6" y1="394.2" x2="160.6" y2="394.2"/>
	<line class="st2" x1="176.7" y1="394.2" x2="244.9" y2="394.2"/>
	<line class="st3" x1="42" y1="411.5" x2="76.6" y2="411.5"/>
	<line class="st7" x1="91.4" y1="411.5" x2="126" y2="411.5"/>
	<line class="st2" x1="140.1" y1="411.5" x2="193.7" y2="411.5"/>
	<line class="st3" x1="42" y1="431.8" x2="121.8" y2="431.8"/>
	<line class="st4" x1="140.1" y1="431.8" x2="301.3" y2="431.8"/>
</g>
</svg>
