<?xml version="1.0" encoding="utf-8"?>
<!-- Generator: Adobe Illustrator 25.2.3, SVG Export Plug-In . SVG Version: 6.00 Build 0)  -->
<svg version="1.1" id="Layer_1" xmlns="http://www.w3.org/2000/svg" xmlns:xlink="http://www.w3.org/1999/xlink" x="0px" y="0px"
	 viewBox="0 0 1240 400" style="enable-background:new 0 0 1240 400;" xml:space="preserve">
<style type="text/css">
	.st0{fill:#00978E;}
	.st1{fill:#80B6B1;}
	.st2{fill:#80CBC7;}
	.st3{fill:#016D62;}
	.st4{fill:#FCF9F3;}
	.st5{fill:#F18553;}
	.st6{fill:#007777;}
	.st7{fill:#61BBB5;}
	.st8{fill:#00988F;}
</style>
<path class="st0" d="M800.5,112L800.5,112c-79.5,0-144,64.5-144,144v144h288V256C944.5,176.5,880.1,112,800.5,112z"/>
<path class="st1" d="M800.5,112L800.5,112c-79.5,0-144,64.5-144,144v144h144V112z"/>
<path class="st2" d="M1240,200H940.3C884.9,200,840,244.8,840,300v0c0,55.2,44.9,100,100.3,100H1240V200z"/>
<path class="st3" d="M1240,200H940.3C885.1,200,840,245,840,300v0h400V200z"/>
<rect x="1090" y="300" class="st4" width="150" height="100"/>
<path class="st5" d="M1140,350L1140,350c0,27.6-22.4,50-50,50h0c-27.6,0-50-22.4-50-50v0c0-27.6,22.4-50,50-50h0
	C1117.6,300,1140,322.4,1140,350z"/>
<polygon class="st5" points="657.1,400 0,399.5 0.2,272.3 657.2,272.8 "/>
<path class="st6" d="M290.1,272.3L290.1,272.3c0-70.5-57.2-127.7-127.7-127.7H0V400h162.4C232.9,400,290.1,342.8,290.1,272.3z"/>
<path class="st7" d="M290.1,272.3L290.1,272.3c0-70.5-58.2-127.7-130-127.7H0v127.7H290.1z"/>
<path class="st8" d="M722.2,336.2L722.2,336.2c0-35.3-28.6-63.8-63.8-63.8H656c-35.3,0-63.8,28.6-63.8,63.8v0
	c0,35.3,28.6,63.8,63.8,63.8h2.3C693.6,400,722.2,371.4,722.2,336.2z"/>
</svg>
