<?xml version="1.0" encoding="utf-8"?>
<!-- Generator: Adobe Illustrator 25.2.3, SVG Export Plug-In . SVG Version: 6.00 Build 0)  -->
<svg version="1.1" id="Layer_1" xmlns="http://www.w3.org/2000/svg" xmlns:xlink="http://www.w3.org/1999/xlink" x="0px" y="0px"
	 viewBox="0 0 1920 1080" style="enable-background:new 0 0 1920 1080;" xml:space="preserve">
<style type="text/css">
	.st0{clip-path:url(#SVGID_2_);fill-rule:evenodd;clip-rule:evenodd;fill:#00978E;}
	.st1{clip-path:url(#SVGID_2_);fill:#016D62;}
	.st2{clip-path:url(#SVGID_2_);fill:#007777;}
	.st3{clip-path:url(#SVGID_2_);}
	.st4{clip-path:url(#SVGID_2_);fill:#F18553;}
	.st5{clip-path:url(#SVGID_2_);fill:#80B6B1;}
	.st6{clip-path:url(#SVGID_2_);fill-rule:evenodd;clip-rule:evenodd;fill:#007777;}
</style>
<g>
	<defs>
		<rect id="SVGID_1_" x="0" width="1920" height="1080"/>
	</defs>
	<clipPath id="SVGID_2_">
		<use xlink:href="#SVGID_1_"  style="overflow:visible;"/>
	</clipPath>
	<rect x="0" class="st0" width="1920" height="1080"/>
	<rect x="1645.7" y="0.6" class="st1" width="275" height="1080"/>
	<path class="st2" d="M1370,495.2v585.4h550V495.2c0-151.9-123.1-275-275-275h0C1493.1,220.2,1370,343.3,1370,495.2z"/>
	<rect x="1095" class="st1" width="275" height="1080"/>
	<g class="st3">
		<defs>
			<rect id="SVGID_3_" x="820" width="550" height="485.2"/>
		</defs>
		<use xlink:href="#SVGID_3_"  style="overflow:visible;fill:#016D62;"/>
		<clipPath id="SVGID_4_">
			<use xlink:href="#SVGID_3_"  style="overflow:visible;"/>
		</clipPath>
	</g>
	<circle class="st4" cx="1507.5" cy="0.6" r="137.5"/>
	<path class="st5" d="M1645,1080.6V801.5c0-75.9,61.6-137.5,137.5-137.5h0c75.9,0,137.5,61.6,137.5,137.5v279.1H1645z"/>
	<circle class="st6" cx="1095" cy="495.2" r="275"/>
	<path class="st5" d="M1095,772.1L1095,772.1l0-552.2c0-75.9,61.6-137.5,137.5-137.5h0c75.9,0,137.5,61.6,137.5,137.5v277.2
		C1370,649,1246.9,772.1,1095,772.1z"/>
</g>
</svg>
