<?xml version="1.0" encoding="utf-8"?>
<!-- Generator: Adobe Illustrator 25.2.3, SVG Export Plug-In . SVG Version: 6.00 Build 0)  -->
<svg version="1.1" id="Layer_1" xmlns="http://www.w3.org/2000/svg" xmlns:xlink="http://www.w3.org/1999/xlink" x="0px" y="0px"
	 viewBox="0 0 64.3 74.1" style="enable-background:new 0 0 64.3 74.1;" xml:space="preserve">
<g>
	<path d="M28.6,74.1h3.3h0.3h3.3c11,0,20-9,20-20.1c0-8.7-0.2,0.6,0-8.1c0,0.2-1.7,1.8-1.9,2.1c-0.7,1.1-1,2.2-1.3,3.4
		c-0.6,2.1-0.5,4.9-2.2,6c-4.4,2.8-8.5-4.1-11.6-5.7c-1.9-1-4.1-1.2-6.2-1.2c-0.1,0-0.1,0-0.2,0c-0.1,0-0.1,0-0.2,0
		c-2.1,0-4.3,0.2-6.2,1.2c-3.1,1.6-7.1,8.5-11.5,5.7c-1.8-1.1-1.6-3.9-2.2-6c-0.4-1.2-0.7-2.3-1.4-3.4c-0.2-0.3-1.9-1.9-1.9-2.1
		c0.2,8.7,0-0.6,0,8.1C8.6,65.1,17.6,74.1,28.6,74.1z M29.5,53.8c0,1.5,1.2,2.6,2.6,2.6c1.5,0,2.6-1.2,2.6-2.6h2
		c0,2.6-2.1,4.6-4.6,4.6s-4.6-2.1-4.6-4.6H29.5z"/>
	<path d="M4.8,36.2C2.2,36.2,0,38.4,0,41s2.2,4.8,4.8,4.8V36.2z"/>
	<path d="M64.3,41c0-2.7-2.2-4.8-4.8-4.8v9.7C62.2,45.9,64.3,43.7,64.3,41z"/>
	<path d="M35.9,47c1.5,1.5,3.5,2.3,5.7,2.3h3.9c2.2,0,4.2-0.8,5.8-2.3c1.7-1.6,2.6-3.8,2.6-6.1v-3.4c0-2-1.6-3.6-3.6-3.6H37.5
		c-2,0-3.3,2.1-3.8,3.9h-3c-0.5-1.8-1.8-3.9-3.8-3.9H14c-2,0-3.6,1.6-3.6,3.6v3.4c0,2.3,1,4.5,2.6,6.1c1.6,1.5,3.6,2.3,5.8,2.3h3.9
		c2.1,0,4.1-0.8,5.7-2.3c1.6-1.5,2.4-3.6,2.4-5.8v-0.4h2.6v0.4C33.4,43.4,34.3,45.4,35.9,47z M36.4,39.3c0-0.9,0.7-2.2,1-2.4h12.8
		c0.3,0,0.6,0.3,0.6,0.6v3.4c0,1.5-0.6,2.9-1.7,3.9c-1,1-2.3,1.5-3.7,1.5h-3.9c-1.3,0-2.6-0.5-3.6-1.5c-1-1-1.5-2.3-1.5-3.6V39.3z
		 M27.9,41.2c0,1.4-0.5,2.7-1.5,3.6c-1,0.9-2.2,1.5-3.6,1.5h-3.9c-1.4,0-2.7-0.5-3.7-1.5c-1.1-1-1.7-2.4-1.7-3.9v-3.4
		c0-0.3,0.3-0.6,0.6-0.6l12.7,0c0.4,0.2,1.1,1.5,1.1,2.4C27.9,39.3,27.9,41.2,27.9,41.2z"/>
	<path d="M21.8,39c-2.5,0-4.6,2.1-4.6,4.6h1.7c0-1.6,1.3-2.8,2.8-2.8s2.8,1.3,2.8,2.8h1.7C26.3,41,24.3,39,21.8,39z"/>
	<path d="M42.6,40.7c1.6,0,2.8,1.3,2.8,2.8h1.7c0-2.5-2.1-4.6-4.6-4.6S38,41,38,43.6h1.7C39.7,42,41,40.7,42.6,40.7z"/>
	<path d="M13,22.8c0.4-0.8,0.7-1.7,1.4-2.2c8.8-4.1,15.6,3.6,17.8,3.5c4.6-0.3,4.6-5,16.1-4.7c1.6,4.7,3.4,9.2,5.5,13.7
		c1.1-2.7,2.1-5.4,2.4-8.2c0.3-2.8-0.3-5.9-2.3-8c2-6.5-1.7-14.3-8-16.8c0.9,1.8-0.6,4-2.5,4.7c-1.9,0.7-3.9,0.4-5.9,0.1
		c-7-0.8-15.4,0.4-19,6.5c-1.2-2.8-5.4-3.1-7.8-1.2s-3.1,5.2-3.2,8.3c-0.2,4.4,0.7,8.9,2.5,12.9C10.8,28.4,11.8,25.6,13,22.8z"/>
</g>
</svg>
